<mxfile host="app.diagrams.net" agent="Mozilla/5.0 (X11; Ubuntu; Linux x86_64; rv:133.0) Gecko/20100101 Firefox/133.0" version="25.0.3">
  <diagram name="Página-1" id="M1WHtnQ7XEjW2ns4zSH4">
    <mxGraphModel dx="1434" dy="907" grid="1" gridSize="10" guides="1" tooltips="1" connect="1" arrows="1" fold="1" page="1" pageScale="1" pageWidth="827" pageHeight="1169" math="0" shadow="0">
      <root>
        <mxCell id="0" />
        <mxCell id="1" parent="0" />
        <mxCell id="TlEULiumSEeQK6ZXybz9-2" value="&lt;div&gt;Start&lt;/div&gt;" style="rounded=1;whiteSpace=wrap;html=1;" vertex="1" parent="1">
          <mxGeometry x="350" y="40" width="120" height="60" as="geometry" />
        </mxCell>
        <mxCell id="TlEULiumSEeQK6ZXybz9-4" value="" style="endArrow=classic;html=1;rounded=0;exitX=0.5;exitY=1;exitDx=0;exitDy=0;" edge="1" parent="1" source="TlEULiumSEeQK6ZXybz9-2">
          <mxGeometry width="50" height="50" relative="1" as="geometry">
            <mxPoint x="390" y="320" as="sourcePoint" />
            <mxPoint x="410" y="190" as="targetPoint" />
          </mxGeometry>
        </mxCell>
        <mxCell id="TlEULiumSEeQK6ZXybz9-5" value="Escolha uma letra" style="rhombus;whiteSpace=wrap;html=1;" vertex="1" parent="1">
          <mxGeometry x="340" y="190" width="140" height="140" as="geometry" />
        </mxCell>
        <mxCell id="TlEULiumSEeQK6ZXybz9-6" value="Adiciona a letra as incógnitas da palavra" style="rhombus;whiteSpace=wrap;html=1;" vertex="1" parent="1">
          <mxGeometry x="150" y="600" width="140" height="140" as="geometry" />
        </mxCell>
        <mxCell id="TlEULiumSEeQK6ZXybz9-7" value="&lt;div&gt;Coloca uma parte do corpo da pessoa na forca&lt;/div&gt;" style="rhombus;whiteSpace=wrap;html=1;" vertex="1" parent="1">
          <mxGeometry x="530" y="600" width="140" height="140" as="geometry" />
        </mxCell>
        <mxCell id="TlEULiumSEeQK6ZXybz9-8" value="" style="endArrow=classic;html=1;rounded=0;exitX=0.5;exitY=1;exitDx=0;exitDy=0;" edge="1" parent="1" source="TlEULiumSEeQK6ZXybz9-5">
          <mxGeometry width="50" height="50" relative="1" as="geometry">
            <mxPoint x="390" y="410" as="sourcePoint" />
            <mxPoint x="410" y="410" as="targetPoint" />
            <Array as="points">
              <mxPoint x="410" y="370" />
            </Array>
          </mxGeometry>
        </mxCell>
        <mxCell id="TlEULiumSEeQK6ZXybz9-9" value="&lt;div&gt;Acertou essa letra?&lt;/div&gt;" style="rhombus;whiteSpace=wrap;html=1;" vertex="1" parent="1">
          <mxGeometry x="340" y="410" width="140" height="140" as="geometry" />
        </mxCell>
        <mxCell id="TlEULiumSEeQK6ZXybz9-10" value="" style="endArrow=classic;html=1;rounded=0;exitX=0.5;exitY=1;exitDx=0;exitDy=0;entryX=0.5;entryY=0;entryDx=0;entryDy=0;" edge="1" parent="1" source="TlEULiumSEeQK6ZXybz9-9" target="TlEULiumSEeQK6ZXybz9-6">
          <mxGeometry width="50" height="50" relative="1" as="geometry">
            <mxPoint x="390" y="530" as="sourcePoint" />
            <mxPoint x="250" y="550" as="targetPoint" />
            <Array as="points">
              <mxPoint x="220" y="550" />
            </Array>
          </mxGeometry>
        </mxCell>
        <mxCell id="TlEULiumSEeQK6ZXybz9-11" value="" style="endArrow=classic;html=1;rounded=0;exitX=0.5;exitY=1;exitDx=0;exitDy=0;entryX=0.5;entryY=0;entryDx=0;entryDy=0;" edge="1" parent="1" source="TlEULiumSEeQK6ZXybz9-9" target="TlEULiumSEeQK6ZXybz9-7">
          <mxGeometry width="50" height="50" relative="1" as="geometry">
            <mxPoint x="420" y="560" as="sourcePoint" />
            <mxPoint x="260" y="610" as="targetPoint" />
            <Array as="points">
              <mxPoint x="600" y="550" />
            </Array>
          </mxGeometry>
        </mxCell>
        <mxCell id="TlEULiumSEeQK6ZXybz9-12" value="SIM" style="text;html=1;align=center;verticalAlign=middle;whiteSpace=wrap;rounded=0;" vertex="1" parent="1">
          <mxGeometry x="230" y="510" width="60" height="30" as="geometry" />
        </mxCell>
        <mxCell id="TlEULiumSEeQK6ZXybz9-13" value="NÃO" style="text;html=1;align=center;verticalAlign=middle;whiteSpace=wrap;rounded=0;" vertex="1" parent="1">
          <mxGeometry x="520" y="520" width="60" height="30" as="geometry" />
        </mxCell>
        <mxCell id="TlEULiumSEeQK6ZXybz9-15" value="Escolha outra letra:&lt;br&gt;&lt;div&gt;(Assim por diante)&lt;/div&gt;" style="rhombus;whiteSpace=wrap;html=1;" vertex="1" parent="1">
          <mxGeometry x="340" y="850" width="140" height="140" as="geometry" />
        </mxCell>
        <mxCell id="TlEULiumSEeQK6ZXybz9-16" value="" style="endArrow=classic;html=1;rounded=0;exitX=0.5;exitY=1;exitDx=0;exitDy=0;entryX=0;entryY=0.5;entryDx=0;entryDy=0;" edge="1" parent="1" source="TlEULiumSEeQK6ZXybz9-6" target="TlEULiumSEeQK6ZXybz9-15">
          <mxGeometry width="50" height="50" relative="1" as="geometry">
            <mxPoint x="300" y="760" as="sourcePoint" />
            <mxPoint x="220" y="1020" as="targetPoint" />
            <Array as="points">
              <mxPoint x="220" y="920" />
            </Array>
          </mxGeometry>
        </mxCell>
        <mxCell id="TlEULiumSEeQK6ZXybz9-17" value="" style="endArrow=classic;html=1;rounded=0;exitX=0.5;exitY=1;exitDx=0;exitDy=0;entryX=1;entryY=0.5;entryDx=0;entryDy=0;" edge="1" parent="1" source="TlEULiumSEeQK6ZXybz9-7" target="TlEULiumSEeQK6ZXybz9-15">
          <mxGeometry width="50" height="50" relative="1" as="geometry">
            <mxPoint x="390" y="920" as="sourcePoint" />
            <mxPoint x="440" y="870" as="targetPoint" />
            <Array as="points">
              <mxPoint x="600" y="920" />
            </Array>
          </mxGeometry>
        </mxCell>
        <mxCell id="TlEULiumSEeQK6ZXybz9-18" value="" style="endArrow=classic;html=1;rounded=0;exitX=0.5;exitY=1;exitDx=0;exitDy=0;" edge="1" parent="1" source="TlEULiumSEeQK6ZXybz9-15">
          <mxGeometry width="50" height="50" relative="1" as="geometry">
            <mxPoint x="390" y="1070" as="sourcePoint" />
            <mxPoint x="410" y="1090" as="targetPoint" />
          </mxGeometry>
        </mxCell>
        <mxCell id="TlEULiumSEeQK6ZXybz9-19" value="&lt;div&gt;Acertou essa letra?&lt;/div&gt;&lt;div&gt;(Assim por diante)&lt;/div&gt;" style="rhombus;whiteSpace=wrap;html=1;" vertex="1" parent="1">
          <mxGeometry x="340" y="1090" width="140" height="140" as="geometry" />
        </mxCell>
        <mxCell id="TlEULiumSEeQK6ZXybz9-20" value="Acertou a palavra sem deixar o corpo todo se formar na forca" style="rhombus;whiteSpace=wrap;html=1;" vertex="1" parent="1">
          <mxGeometry x="150" y="1320" width="140" height="140" as="geometry" />
        </mxCell>
        <mxCell id="TlEULiumSEeQK6ZXybz9-21" value="&lt;div&gt;Se errar um numero X de vezes, por exemplo 6&lt;/div&gt;" style="rhombus;whiteSpace=wrap;html=1;" vertex="1" parent="1">
          <mxGeometry x="530" y="1320" width="140" height="140" as="geometry" />
        </mxCell>
        <mxCell id="TlEULiumSEeQK6ZXybz9-22" value="" style="endArrow=classic;html=1;rounded=0;entryX=0.5;entryY=0;entryDx=0;entryDy=0;" edge="1" parent="1" source="TlEULiumSEeQK6ZXybz9-19" target="TlEULiumSEeQK6ZXybz9-20">
          <mxGeometry width="50" height="50" relative="1" as="geometry">
            <mxPoint x="390" y="1500" as="sourcePoint" />
            <mxPoint x="440" y="1450" as="targetPoint" />
            <Array as="points">
              <mxPoint x="220" y="1160" />
            </Array>
          </mxGeometry>
        </mxCell>
        <mxCell id="TlEULiumSEeQK6ZXybz9-23" value="" style="endArrow=classic;html=1;rounded=0;exitX=1;exitY=0.5;exitDx=0;exitDy=0;entryX=0.5;entryY=0;entryDx=0;entryDy=0;" edge="1" parent="1" source="TlEULiumSEeQK6ZXybz9-19" target="TlEULiumSEeQK6ZXybz9-21">
          <mxGeometry width="50" height="50" relative="1" as="geometry">
            <mxPoint x="390" y="1500" as="sourcePoint" />
            <mxPoint x="440" y="1450" as="targetPoint" />
            <Array as="points">
              <mxPoint x="600" y="1160" />
            </Array>
          </mxGeometry>
        </mxCell>
        <mxCell id="TlEULiumSEeQK6ZXybz9-24" value="GANHOU" style="rounded=1;whiteSpace=wrap;html=1;" vertex="1" parent="1">
          <mxGeometry x="160" y="1580" width="120" height="60" as="geometry" />
        </mxCell>
        <mxCell id="TlEULiumSEeQK6ZXybz9-25" value="" style="endArrow=classic;html=1;rounded=0;exitX=0.5;exitY=1;exitDx=0;exitDy=0;entryX=0.5;entryY=0;entryDx=0;entryDy=0;" edge="1" parent="1" source="TlEULiumSEeQK6ZXybz9-20" target="TlEULiumSEeQK6ZXybz9-24">
          <mxGeometry width="50" height="50" relative="1" as="geometry">
            <mxPoint x="390" y="1410" as="sourcePoint" />
            <mxPoint x="440" y="1360" as="targetPoint" />
          </mxGeometry>
        </mxCell>
        <mxCell id="TlEULiumSEeQK6ZXybz9-26" value="PERDEU" style="rounded=1;whiteSpace=wrap;html=1;" vertex="1" parent="1">
          <mxGeometry x="540" y="1580" width="120" height="60" as="geometry" />
        </mxCell>
        <mxCell id="TlEULiumSEeQK6ZXybz9-27" value="" style="endArrow=classic;html=1;rounded=0;exitX=0.5;exitY=1;exitDx=0;exitDy=0;entryX=0.5;entryY=0;entryDx=0;entryDy=0;" edge="1" parent="1">
          <mxGeometry width="50" height="50" relative="1" as="geometry">
            <mxPoint x="599.5" y="1460" as="sourcePoint" />
            <mxPoint x="599.5" y="1580" as="targetPoint" />
          </mxGeometry>
        </mxCell>
      </root>
    </mxGraphModel>
  </diagram>
</mxfile>
